<?xml version="1.0" standalone="no"?>
<!DOCTYPE svg PUBLIC "-//W3C//DTD SVG 20010904//EN"
 "http://www.w3.org/TR/2001/REC-SVG-20010904/DTD/svg10.dtd">
<svg version="1.0" xmlns="http://www.w3.org/2000/svg"
 width="982.000000pt" height="982.000000pt" viewBox="0 0 982.000000 982.000000"
 preserveAspectRatio="xMidYMid meet">
<metadata>
Created by potrace 1.11, written by Peter Selinger 2001-2013
</metadata>
<g transform="translate(0.000000,982.000000) scale(0.100000,-0.100000)"
fill="#000000" stroke="none">
<path d="M9735 9793 c-33 -13 -240 -99 -460 -190 -1339 -553 -6854 -2850
-8300 -3458 -832 -349 -965 -407 -965 -415 0 -16 311 -143 2404 -981 l1670
-667 671 -1679 c686 -1715 948 -2359 969 -2388 9 -13 19 3 59 97 383 897 3625
8669 3986 9554 38 93 52 155 34 153 -5 0 -35 -12 -68 -26z m-1633 -1410 c-592
-600 -2635 -2640 -3237 -3234 -415 -408 -666 -645 -701 -661 -16 -8 -77 12
-295 97 -284 112 -2280 911 -2637 1056 l-203 83 33 17 c127 65 5235 2215 6948
2925 311 129 574 238 585 243 11 6 24 10 29 10 5 1 -230 -241 -522 -536z m815
240 c-3 -5 -81 -192 -175 -418 -1054 -2543 -2407 -5776 -2792 -6675 -196 -457
-211 -490 -220 -490 -4 0 -22 35 -40 77 -122 292 -1095 2717 -1180 2945 l-33
87 39 48 c105 129 545 575 2393 2426 1103 1104 2007 2007 2009 2007 2 0 1 -3
-1 -7z"/>
</g>
</svg>
